<mxfile host="app.diagrams.net" modified="2022-07-20T10:06:02.984Z" agent="5.0 (Windows NT 10.0; Win64; x64) AppleWebKit/537.36 (KHTML, like Gecko) Chrome/103.0.0.0 Safari/537.36" etag="zlkOAyigHRw37c_L97JZ" version="20.1.3" type="github">
  <diagram name="Page-1" id="12e1b939-464a-85fe-373e-61e167be1490">
    <mxGraphModel dx="981" dy="542" grid="1" gridSize="10" guides="1" tooltips="1" connect="1" arrows="1" fold="1" page="1" pageScale="1.5" pageWidth="1169" pageHeight="826" background="none" math="0" shadow="0">
      <root>
        <mxCell id="0" />
        <mxCell id="1" parent="0" />
        <mxCell id="f1jEnCdCxaJFMMpyEH3l-1" value="&lt;h1&gt;&lt;span style=&quot;font-size: 36px;&quot;&gt;RECRUITMENT PHASE&lt;/span&gt;&lt;/h1&gt;" style="text;html=1;strokeColor=none;fillColor=none;spacing=5;spacingTop=-20;whiteSpace=wrap;overflow=hidden;rounded=0;align=center;" vertex="1" parent="1">
          <mxGeometry x="760" y="60" width="720" height="120" as="geometry" />
        </mxCell>
        <mxCell id="f1jEnCdCxaJFMMpyEH3l-80" style="edgeStyle=orthogonalEdgeStyle;rounded=0;orthogonalLoop=1;jettySize=auto;html=1;exitX=0.5;exitY=1;exitDx=0;exitDy=0;fontSize=8;fontColor=#000000;strokeColor=default;strokeWidth=2;" edge="1" parent="1" source="f1jEnCdCxaJFMMpyEH3l-69" target="f1jEnCdCxaJFMMpyEH3l-78">
          <mxGeometry relative="1" as="geometry" />
        </mxCell>
        <mxCell id="f1jEnCdCxaJFMMpyEH3l-69" value="Development Team" style="rounded=0;whiteSpace=wrap;html=1;fontSize=17;fillColor=#f8cecc;fillStyle=auto;strokeColor=#b85450;" vertex="1" parent="1">
          <mxGeometry x="1020" y="160" width="200" height="80" as="geometry" />
        </mxCell>
        <mxCell id="f1jEnCdCxaJFMMpyEH3l-86" style="edgeStyle=orthogonalEdgeStyle;rounded=0;orthogonalLoop=1;jettySize=auto;html=1;exitX=0.5;exitY=1;exitDx=0;exitDy=0;fontSize=8;fontColor=#000000;strokeColor=default;strokeWidth=2;" edge="1" parent="1" source="f1jEnCdCxaJFMMpyEH3l-70" target="f1jEnCdCxaJFMMpyEH3l-82">
          <mxGeometry relative="1" as="geometry" />
        </mxCell>
        <mxCell id="f1jEnCdCxaJFMMpyEH3l-70" value="Tech Recruiter" style="rounded=0;whiteSpace=wrap;html=1;fontSize=17;fillColor=#f8cecc;fillStyle=auto;strokeColor=#b85450;" vertex="1" parent="1">
          <mxGeometry x="1020" y="400" width="200" height="80" as="geometry" />
        </mxCell>
        <mxCell id="f1jEnCdCxaJFMMpyEH3l-85" style="edgeStyle=orthogonalEdgeStyle;rounded=0;orthogonalLoop=1;jettySize=auto;html=1;exitX=0.5;exitY=1;exitDx=0;exitDy=0;entryX=0.5;entryY=0;entryDx=0;entryDy=0;fontSize=8;fontColor=#000000;strokeColor=default;strokeWidth=2;" edge="1" parent="1" source="f1jEnCdCxaJFMMpyEH3l-78" target="f1jEnCdCxaJFMMpyEH3l-70">
          <mxGeometry relative="1" as="geometry" />
        </mxCell>
        <mxCell id="f1jEnCdCxaJFMMpyEH3l-78" value="&lt;h6&gt;&lt;font style=&quot;font-size: 8px;&quot;&gt;Mengirimkan spesifikasi dan detail sesuai dengan kandidat yang dicari.&lt;/font&gt;&lt;/h6&gt;" style="text;html=1;strokeColor=none;fillColor=none;align=center;verticalAlign=middle;whiteSpace=wrap;rounded=0;fillStyle=auto;fontSize=17;fontColor=#000000;" vertex="1" parent="1">
          <mxGeometry x="1020" y="320" width="200" height="40" as="geometry" />
        </mxCell>
        <mxCell id="f1jEnCdCxaJFMMpyEH3l-82" value="&lt;h6&gt;&lt;font style=&quot;font-size: 8px;&quot;&gt;Setelah menerima detail&amp;nbsp; TR langsung membuat job posting preview sesuai SOP&lt;/font&gt;&lt;/h6&gt;" style="text;html=1;strokeColor=none;fillColor=none;align=center;verticalAlign=middle;whiteSpace=wrap;rounded=0;fillStyle=auto;fontSize=17;fontColor=#000000;" vertex="1" parent="1">
          <mxGeometry x="1020" y="520" width="200" height="40" as="geometry" />
        </mxCell>
        <mxCell id="f1jEnCdCxaJFMMpyEH3l-87" value="Text" style="text;html=1;resizable=0;autosize=1;align=center;verticalAlign=middle;points=[];fillColor=none;strokeColor=none;rounded=0;fillStyle=auto;fontSize=8;fontColor=#0000CC;" vertex="1" parent="1">
          <mxGeometry x="600" y="150" width="40" height="20" as="geometry" />
        </mxCell>
      </root>
    </mxGraphModel>
  </diagram>
</mxfile>
